<?xml version="1.0" encoding="utf-8"?>
<!-- Generator: Adobe Illustrator 25.2.3, SVG Export Plug-In . SVG Version: 6.00 Build 0)  -->
<svg version="1.1" id="레이어_1" xmlns="http://www.w3.org/2000/svg" xmlns:xlink="http://www.w3.org/1999/xlink" x="0px"
	 y="0px" viewBox="0 0 720 110" style="enable-background:new 0 0 720 110;" xml:space="preserve">
<style type="text/css">
	.st0{fill:#F3C91E;}
	.st1{fill:#FDD000;}
</style>
<path class="st0" d="M98.5,3.13H15.3c-5.93,0-10.74,4.81-10.74,10.74v83.2c0,5.93,4.81,10.74,10.74,10.74h83.2
	c5.93,0,10.74-4.81,10.74-10.74v-83.2C109.24,7.94,104.43,3.13,98.5,3.13z M101.55,93.62c0,3.6-2.91,6.51-6.51,6.51H18.75
	c-3.59,0-6.51-2.91-6.51-6.51V17.33c0-3.59,2.91-6.51,6.51-6.51h76.29c3.59,0,6.51,2.91,6.51,6.51V93.62z"/>
<path class="st0" d="M103.14,93.2V51.54c-7.76-6.07-18.27-1.43-27.57,3.41c-2.29,1.09-4.08,2.38-5.45,3.81
	c-0.01,0.01-0.02,0.01-0.02,0L59.23,47.89c-3.45-3.45-9.08-3.67-12.62-0.31c-3.66,3.48-3.72,9.27-0.17,12.81l22.13,22.13
	c0.01,0.01,0,0.03-0.01,0.03l-7.65-1.32c-4.81-0.83-9.54,2.24-10.49,7.03c-0.99,4.95,2.31,9.71,7.25,10.57c0,0,11,1.9,21.84,3.77
	c0.01,0,0.01,0,0.01,0.01c0.08,0.17,0.15,0.33,0.22,0.49h13.51C98.71,103.1,103.14,98.67,103.14,93.2z"/>
<path class="st0" d="M77.03,17.46H36.76c-2.41,0-4.37-1.96-4.37-4.37V8.54c0-2.41,1.96-4.37,4.37-4.37h40.26
	c2.41,0,4.37,1.96,4.37,4.37v4.55C81.39,15.51,79.44,17.46,77.03,17.46z"/>
<rect x="21.18" y="30.31" class="st0" width="71.43" height="3.71"/>
<rect x="21.18" y="46.86" class="st0" width="71.43" height="3.71"/>
<rect x="21.18" y="63.42" class="st0" width="71.43" height="3.71"/>
<g>
	<g>
		<path class="st0" d="M26.27,88.27c0,0.46-0.1,0.84-0.32,1.16c-0.21,0.32-0.5,0.56-0.86,0.72c-0.36,0.17-0.76,0.25-1.21,0.25
			c-0.45,0-0.85-0.08-1.21-0.25c-0.36-0.17-0.64-0.41-0.85-0.72c-0.21-0.32-0.32-0.7-0.32-1.16c0-0.46,0.1-0.84,0.32-1.16
			c0.21-0.32,0.49-0.56,0.85-0.72c0.36-0.17,0.76-0.25,1.21-0.25c0.45,0,0.85,0.08,1.21,0.25c0.36,0.17,0.64,0.41,0.86,0.72
			C26.16,87.43,26.27,87.82,26.27,88.27z M25.04,88.27c0-0.27-0.05-0.5-0.14-0.68c-0.09-0.19-0.22-0.33-0.39-0.42
			c-0.17-0.1-0.38-0.14-0.62-0.14c-0.24,0-0.44,0.05-0.62,0.14c-0.17,0.1-0.3,0.24-0.4,0.42c-0.09,0.19-0.14,0.41-0.14,0.68
			c0,0.27,0.05,0.5,0.14,0.68c0.09,0.19,0.22,0.33,0.4,0.42c0.17,0.1,0.38,0.14,0.62,0.14c0.24,0,0.45-0.05,0.62-0.14
			c0.17-0.1,0.3-0.24,0.39-0.42C24.99,88.77,25.04,88.54,25.04,88.27z"/>
		<path class="st0" d="M26.63,90.35V86.2h2.06c0.37,0,0.7,0.06,0.97,0.17c0.27,0.11,0.48,0.27,0.63,0.48
			c0.15,0.21,0.22,0.45,0.22,0.74c0,0.29-0.08,0.53-0.23,0.73c-0.15,0.2-0.37,0.35-0.64,0.46c-0.28,0.1-0.61,0.16-0.99,0.16h-1.3
			v-0.79h1.08c0.18,0,0.33-0.02,0.46-0.06c0.12-0.04,0.22-0.1,0.28-0.18c0.06-0.08,0.09-0.19,0.09-0.31c0-0.13-0.03-0.23-0.09-0.32
			c-0.06-0.08-0.16-0.15-0.28-0.19C28.76,87.03,28.61,87,28.42,87h-0.59v3.34L26.63,90.35L26.63,90.35z M29.44,88.45l1.24,1.9h-1.31
			l-1.22-1.9H29.44z"/>
		<path class="st0" d="M32.67,90.35h-1.84V86.2h1.84c0.51,0,0.95,0.08,1.31,0.25c0.37,0.17,0.65,0.4,0.85,0.71s0.3,0.68,0.3,1.11
			c0,0.43-0.1,0.8-0.3,1.12c-0.2,0.31-0.48,0.55-0.85,0.71C33.61,90.27,33.18,90.35,32.67,90.35z M32.03,89.49h0.59
			c0.28,0,0.52-0.04,0.71-0.12c0.19-0.08,0.34-0.21,0.44-0.39c0.1-0.18,0.15-0.42,0.15-0.72c0-0.3-0.05-0.54-0.15-0.71
			s-0.25-0.31-0.44-0.39c-0.2-0.08-0.44-0.12-0.72-0.12h-0.58L32.03,89.49L32.03,89.49z"/>
		<path class="st0" d="M35.49,90.35V86.2h3.48v0.81h-2.27v0.85h2.1v0.82h-2.1v0.85h2.27v0.81L35.49,90.35L35.49,90.35z"/>
		<path class="st0" d="M39.38,90.35V86.2h2.06c0.37,0,0.7,0.06,0.97,0.17c0.27,0.11,0.48,0.27,0.63,0.48
			c0.15,0.21,0.22,0.45,0.22,0.74c0,0.29-0.08,0.53-0.23,0.73c-0.15,0.2-0.37,0.35-0.64,0.46c-0.28,0.1-0.61,0.16-0.99,0.16h-1.3
			v-0.79h1.08c0.18,0,0.33-0.02,0.46-0.06c0.12-0.04,0.22-0.1,0.28-0.18c0.06-0.08,0.09-0.19,0.09-0.31c0-0.13-0.03-0.23-0.09-0.32
			c-0.06-0.08-0.16-0.15-0.28-0.19C41.51,87.03,41.36,87,41.18,87h-0.59v3.34L39.38,90.35L39.38,90.35z M42.19,88.45l1.24,1.9h-1.31
			l-1.22-1.9H42.19z"/>
		<path class="st0" d="M44.78,86.2v4.15h-1.21V86.2H44.78z"/>
		<path class="st0" d="M45.03,87.01V86.2h4.22v0.81h-1.51v3.34h-1.19v-3.34H45.03z"/>
	</g>
</g>
<g>
	<path class="st1" d="M227.4,55.65c0,9.76-2.28,17.98-6.84,24.67c-4.56,6.69-10.71,11.75-18.46,15.19
		c-7.75,3.44-16.39,5.16-25.92,5.16c-9.6,0-18.27-1.73-26-5.2c-7.73-3.47-13.87-8.54-18.41-15.23c-4.54-6.69-6.81-14.88-6.81-24.58
		c0-9.76,2.27-17.98,6.81-24.67c4.54-6.69,10.68-11.75,18.41-15.19c7.73-3.44,16.4-5.16,26-5.16c9.53,0,18.17,1.72,25.92,5.16
		c7.75,3.44,13.9,8.5,18.46,15.19C225.12,37.67,227.4,45.89,227.4,55.65z M197.99,55.65c0-5.25-0.83-9.68-2.49-13.29
		c-1.66-3.61-4.11-6.35-7.35-8.22c-3.24-1.87-7.23-2.8-11.96-2.8s-8.72,0.94-11.96,2.8c-3.24,1.87-5.69,4.61-7.35,8.22
		c-1.66,3.61-2.49,8.04-2.49,13.29c0,5.25,0.83,9.68,2.49,13.29c1.66,3.61,4.11,6.35,7.35,8.22c3.24,1.87,7.23,2.8,11.96,2.8
		s8.72-0.93,11.96-2.8c3.24-1.87,5.69-4.61,7.35-8.22C197.16,65.33,197.99,60.9,197.99,55.65z"/>
	<path class="st1" d="M233.33,99.47V11.83h45.46c7.82,0,14.66,1.18,20.52,3.55c5.86,2.37,10.42,5.78,13.68,10.23
		c3.26,4.45,4.89,9.79,4.89,16c0,6.28-1.67,11.57-5.01,15.88s-8.02,7.56-14.04,9.76c-6.02,2.2-13.04,3.29-21.06,3.29H250.6V52.06
		H272c3.36,0,6.23-0.35,8.61-1.05c2.38-0.7,4.22-1.82,5.5-3.36s1.93-3.55,1.93-6.03c0-2.51-0.64-4.56-1.93-6.14
		c-1.29-1.58-3.12-2.75-5.5-3.51c-2.38-0.76-5.25-1.13-8.61-1.13h-10.08v68.64H233.33z M295.04,59.25l26.33,40.23h-31.06
		l-25.71-40.23H295.04z"/>
	<path class="st1" d="M363.29,99.47h-40.52V11.83h40.11c10.83,0,20.2,1.75,28.11,5.24s14.01,8.52,18.31,15.06s6.45,14.39,6.45,23.51
		c0,9.13-2.14,16.97-6.43,23.51c-4.29,6.55-10.35,11.57-18.21,15.06C383.26,97.72,373.99,99.47,363.29,99.47z M351.36,79.27h10.9
		c5.21,0,9.66-0.7,13.35-2.1c3.69-1.4,6.5-3.81,8.44-7.23c1.94-3.42,2.9-8.19,2.9-14.29s-0.99-10.87-2.96-14.29
		s-4.85-5.83-8.64-7.23c-3.79-1.4-8.43-2.1-13.91-2.1h-10.08V79.27z"/>
	<path class="st1" d="M421.67,99.47V11.83h75.91V31h-47.31v15.06h43.4v19.17h-43.4V80.3h47.11v19.17H421.67z"/>
	<path class="st1" d="M504.53,99.47V11.83h45.46c7.82,0,14.66,1.18,20.52,3.55c5.86,2.37,10.42,5.78,13.68,10.23
		c3.26,4.45,4.89,9.79,4.89,16c0,6.28-1.67,11.57-5.01,15.88s-8.02,7.56-14.04,9.76c-6.02,2.2-13.04,3.29-21.06,3.29h-27.15V52.06
		h21.39c3.36,0,6.23-0.35,8.61-1.05c2.38-0.7,4.22-1.82,5.5-3.36c1.29-1.54,1.93-3.55,1.93-6.03c0-2.51-0.64-4.56-1.93-6.14
		c-1.29-1.58-3.12-2.75-5.5-3.51c-2.38-0.76-5.25-1.13-8.61-1.13h-10.08v68.64H504.53z M566.24,59.25l26.33,40.23h-31.06
		l-25.71-40.23H566.24z"/>
	<path class="st1" d="M622.56,11.83v87.64h-28.59V11.83H622.56z"/>
	<path class="st1" d="M626.02,31V11.83h91.54V31h-31.68v68.47H657.7V31H626.02z"/>
</g>
</svg>
