<?xml version="1.0" encoding="utf-8"?>
<!-- Generator: Adobe Illustrator 25.2.3, SVG Export Plug-In . SVG Version: 6.00 Build 0)  -->
<svg version="1.1" id="레이어_1" xmlns="http://www.w3.org/2000/svg" xmlns:xlink="http://www.w3.org/1999/xlink" x="0px"
	 y="0px" viewBox="0 0 720 110" style="enable-background:new 0 0 720 110;" xml:space="preserve">
<style type="text/css">
	.st0{fill:#F3C91E;}
	.st1{fill:#FDD000;}
</style>
<path class="st0" d="M98.5,3.13H15.3c-5.93,0-10.74,4.81-10.74,10.74v83.2c0,5.93,4.81,10.74,10.74,10.74h83.2
	c5.93,0,10.74-4.81,10.74-10.74v-83.2C109.24,7.94,104.43,3.13,98.5,3.13z M101.55,93.62c0,3.6-2.91,6.51-6.51,6.51H18.75
	c-3.59,0-6.51-2.91-6.51-6.51V17.33c0-3.59,2.91-6.51,6.51-6.51h76.29c3.59,0,6.51,2.91,6.51,6.51V93.62z"/>
<path class="st0" d="M103.14,93.2V51.54c-7.76-6.07-18.27-1.43-27.57,3.41c-2.29,1.09-4.08,2.38-5.45,3.81
	c-0.01,0.01-0.02,0.01-0.02,0L59.23,47.89c-3.45-3.45-9.08-3.67-12.62-0.31c-3.66,3.48-3.72,9.27-0.17,12.81l22.13,22.13
	c0.01,0.01,0,0.03-0.01,0.03l-7.65-1.32c-4.81-0.83-9.54,2.24-10.49,7.03c-0.99,4.95,2.31,9.71,7.25,10.57c0,0,11,1.9,21.84,3.77
	c0.01,0,0.01,0,0.01,0.01c0.08,0.17,0.15,0.33,0.22,0.49h13.51C98.71,103.1,103.14,98.67,103.14,93.2z"/>
<path class="st0" d="M77.03,17.46H36.76c-2.41,0-4.37-1.96-4.37-4.37V8.54c0-2.41,1.96-4.37,4.37-4.37h40.26
	c2.41,0,4.37,1.96,4.37,4.37v4.55C81.39,15.51,79.44,17.46,77.03,17.46z"/>
<rect x="21.18" y="30.31" class="st0" width="71.43" height="3.71"/>
<rect x="21.18" y="46.86" class="st0" width="71.43" height="3.71"/>
<rect x="21.18" y="63.42" class="st0" width="71.43" height="3.71"/>
<g>
	<g>
		<path class="st0" d="M26.27,88.27c0,0.46-0.1,0.84-0.32,1.16c-0.21,0.32-0.5,0.56-0.86,0.72c-0.36,0.17-0.76,0.25-1.21,0.25
			c-0.45,0-0.85-0.08-1.21-0.25c-0.36-0.17-0.64-0.41-0.85-0.72c-0.21-0.32-0.32-0.7-0.32-1.16c0-0.46,0.1-0.84,0.32-1.16
			c0.21-0.32,0.49-0.56,0.85-0.72c0.36-0.17,0.76-0.25,1.21-0.25c0.45,0,0.85,0.08,1.21,0.25c0.36,0.17,0.64,0.41,0.86,0.72
			C26.16,87.43,26.27,87.82,26.27,88.27z M25.04,88.27c0-0.27-0.05-0.5-0.14-0.68c-0.09-0.19-0.22-0.33-0.39-0.42
			c-0.17-0.1-0.38-0.14-0.62-0.14c-0.24,0-0.44,0.05-0.62,0.14c-0.17,0.1-0.3,0.24-0.4,0.42c-0.09,0.19-0.14,0.41-0.14,0.68
			c0,0.27,0.05,0.5,0.14,0.68c0.09,0.19,0.22,0.33,0.4,0.42c0.17,0.1,0.38,0.14,0.62,0.14c0.24,0,0.45-0.05,0.62-0.14
			c0.17-0.1,0.3-0.24,0.39-0.42C24.99,88.77,25.04,88.54,25.04,88.27z"/>
		<path class="st0" d="M26.63,90.35V86.2h2.06c0.37,0,0.7,0.06,0.97,0.17c0.27,0.11,0.48,0.27,0.63,0.48
			c0.15,0.21,0.22,0.45,0.22,0.74c0,0.29-0.08,0.53-0.23,0.73c-0.15,0.2-0.37,0.35-0.64,0.46c-0.28,0.1-0.61,0.16-0.99,0.16h-1.3
			v-0.79h1.08c0.18,0,0.33-0.02,0.46-0.06c0.12-0.04,0.22-0.1,0.28-0.18c0.06-0.08,0.09-0.19,0.09-0.31c0-0.13-0.03-0.23-0.09-0.32
			c-0.06-0.08-0.16-0.15-0.28-0.19C28.76,87.03,28.61,87,28.42,87h-0.59v3.34L26.63,90.35L26.63,90.35z M29.44,88.45l1.24,1.9h-1.31
			l-1.22-1.9H29.44z"/>
		<path class="st0" d="M32.67,90.35h-1.84V86.2h1.84c0.51,0,0.95,0.08,1.31,0.25c0.37,0.17,0.65,0.4,0.85,0.71s0.3,0.68,0.3,1.11
			c0,0.43-0.1,0.8-0.3,1.12c-0.2,0.31-0.48,0.55-0.85,0.71C33.61,90.27,33.18,90.35,32.67,90.35z M32.03,89.49h0.59
			c0.28,0,0.52-0.04,0.71-0.12c0.19-0.08,0.34-0.21,0.44-0.39c0.1-0.18,0.15-0.42,0.15-0.72c0-0.3-0.05-0.54-0.15-0.71
			s-0.25-0.31-0.44-0.39c-0.2-0.08-0.44-0.12-0.72-0.12h-0.58L32.03,89.49L32.03,89.49z"/>
		<path class="st0" d="M35.49,90.35V86.2h3.48v0.81h-2.27v0.85h2.1v0.82h-2.1v0.85h2.27v0.81L35.49,90.35L35.49,90.35z"/>
		<path class="st0" d="M39.38,90.35V86.2h2.06c0.37,0,0.7,0.06,0.97,0.17c0.27,0.11,0.48,0.27,0.63,0.48
			c0.15,0.21,0.22,0.45,0.22,0.74c0,0.29-0.08,0.53-0.23,0.73c-0.15,0.2-0.37,0.35-0.64,0.46c-0.28,0.1-0.61,0.16-0.99,0.16h-1.3
			v-0.79h1.08c0.18,0,0.33-0.02,0.46-0.06c0.12-0.04,0.22-0.1,0.28-0.18c0.06-0.08,0.09-0.19,0.09-0.31c0-0.13-0.03-0.23-0.09-0.32
			c-0.06-0.08-0.16-0.15-0.28-0.19C41.51,87.03,41.36,87,41.18,87h-0.59v3.34L39.38,90.35L39.38,90.35z M42.19,88.45l1.24,1.9h-1.31
			l-1.22-1.9H42.19z"/>
		<path class="st0" d="M44.78,86.2v4.15h-1.21V86.2H44.78z"/>
		<path class="st0" d="M45.03,87.01V86.2h4.22v0.81h-1.51v3.34h-1.19v-3.34H45.03z"/>
	</g>
</g>
<g>
	<path class="st1" d="M229.92,61.2c-0.93,3.6-2.59,7.04-4.98,10.31c-2.4,3.28-5.14,6.33-8.22,9.16c-3.09,2.83-6.45,5.27-10.08,7.33
		c-3.63,2.06-7.3,3.66-11,4.82c-6.8,2.06-13.55,2.73-20.27,2.02c-6.72-0.71-12.71-3.24-17.96-7.62c-3.56-3.6-6.06-7.64-7.53-12.15
		c-1.47-4.5-2.17-9.09-2.08-13.78c0.08-4.69,0.85-9.22,2.32-13.59c1.47-4.37,3.36-8.29,5.68-11.76c2.78-4.11,6.1-7.52,9.96-10.22
		c3.86-2.7,8.11-4.3,12.74-4.82c1.23-0.26,2.24,0,3.01,0.77c0.77,0.77,1.16,1.67,1.16,2.7c1.54-1.28,3.94-2.25,7.18-2.89
		c3.24-0.64,6.87-0.7,10.89-0.19c7.41,0.77,13.28,2.64,17.61,5.59c4.32,2.96,7.53,6.4,9.61,10.31c2.09,3.92,3.16,8.03,3.24,12.34
		C231.27,53.85,230.84,57.73,229.92,61.2z M179.41,34.6c-3.09,1.16-5.68,2.86-7.76,5.11c-2.08,2.25-3.79,4.79-5.1,7.61
		c-1.31,2.83-2.17,5.88-2.55,9.16c-0.39,3.28-0.43,6.46-0.12,9.54c0.46,4.5,2.08,8.19,4.87,11.08s7.1,4.34,12.97,4.34
		c3.4,0,6.75-0.55,10.08-1.64c3.32-1.09,6.37-2.54,9.15-4.34c2.78-1.8,5.33-3.95,7.65-6.46s4.17-5.11,5.56-7.81
		c0.77-1.41,1.39-3.18,1.85-5.3s0.62-4.3,0.46-6.55c-0.16-2.25-0.77-4.4-1.85-6.46c-1.08-2.05-2.78-3.79-5.1-5.21
		c-3.24-1.93-7.11-3.08-11.58-3.47c-4.48-0.39-9.19,0.45-14.13,2.51c-0.93,0.52-1.97,0.61-3.13,0.29
		C179.53,36.69,179.1,35.88,179.41,34.6z"/>
	<path class="st1" d="M254.7,98.79c-0.46-4.75-0.81-10.15-1.04-16.19c-0.23-6.04-0.35-12.24-0.35-18.6c0-6.36,0.04-12.63,0.12-18.8
		c0.08-6.17,0.27-11.76,0.58-16.77c0-1.28,0.73-2.28,2.2-2.99c1.47-0.7,2.66-0.99,3.59-0.87c2.78,0.26,4.67,1.06,5.68,2.41
		c1,1.35,1.66,3.25,1.97,5.69c-0.16,4.11-0.27,8.23-0.35,12.34c-0.08,4.11-0.04,8.23,0.12,12.34c6.95-1.03,12.78-3.15,17.49-6.36
		c4.71-3.21,8.07-6.87,10.08-10.99c0.77-1.54,1.35-3.4,1.74-5.59c0.38-2.18,0.42-4.4,0.12-6.65c-0.31-2.25-1.04-4.37-2.2-6.36
		c-1.16-1.99-2.9-3.57-5.21-4.72c-3.4-1.67-7.11-2.57-11.12-2.7c-4.02-0.13-8.15,0.36-12.4,1.45c-4.25,1.09-8.42,2.8-12.51,5.11
		c-4.09,2.31-7.92,5.08-11.47,8.29c0.46,1.93,0.15,3.63-0.93,5.11c-1.08,1.48-2.63,2.54-4.63,3.18c-1.24,0.26-2.7-0.29-4.4-1.64
		c-1.7-1.35-2.55-2.73-2.55-4.15c0-5.14,1.74-9.61,5.21-13.4c3.48-3.79,7.84-6.97,13.09-9.54c5.25-2.57,10.89-4.5,16.91-5.78
		c6.02-1.28,11.58-1.93,16.68-1.93c7.57,0,13.9,1.83,19,5.49c5.1,3.66,8.57,8.26,10.43,13.78c3.24,9.64,2.43,18.31-2.43,26.03
		c-4.87,7.71-12.78,14.4-23.75,20.05c8.03,4.11,15.56,8.03,22.59,11.76c7.03,3.73,14.09,7.78,21.2,12.15
		c0.93,0.77,1.97,1.9,3.13,3.37c1.16,1.48,0.96,3.7-0.58,6.65c-0.93,1.8-2.51,2.79-4.75,2.99c-2.24,0.19-4.44-0.35-6.6-1.64
		c-3.4-2.31-7.22-4.72-11.47-7.23c-4.25-2.51-8.69-5.01-13.32-7.52c-4.63-2.51-9.27-4.95-13.9-7.33c-4.63-2.38-9.04-4.59-13.21-6.65
		c0.15,5.14,0.27,10.25,0.35,15.33c0.08,5.08,0.27,10.06,0.58,14.94c0,1.8-0.62,3.05-1.85,3.76c-1.24,0.71-2.78,1.06-4.63,1.06
		c-0.93-0.13-1.78-0.54-2.55-1.25c-0.77-0.71-1.51-1.54-2.2-2.51c-0.7-0.96-1.27-1.93-1.74-2.89S254.7,99.31,254.7,98.79z"/>
	<path class="st1" d="M331.62,25.73c-2.32,0.77-4.33,0.84-6.02,0.19c-1.7-0.64-2.94-1.48-3.71-2.51c-1.08-1.28-1.39-2.63-0.93-4.05
		c0.46-1.41,1.77-2.63,3.94-3.66c3.55-1.67,8.03-3.05,13.44-4.15c5.4-1.09,11.2-1.38,17.38-0.87c6.18,0.52,11.85,1.9,17.03,4.14
		c5.17,2.25,9.58,5.11,13.21,8.58c3.63,3.47,6.41,7.42,8.34,11.86c1.93,4.43,2.82,9.09,2.66,13.98c-0.31,5.14-1.51,10.28-3.59,15.42
		c-2.09,5.14-4.95,9.96-8.57,14.46c-3.63,4.5-7.96,8.58-12.97,12.24c-5.02,3.66-10.54,6.52-16.57,8.58c-4.17,0.9-7.34,1.03-9.5,0.39
		c-2.16-0.64-3.63-1.41-4.4-2.31c-0.31-0.64-0.43-1.51-0.35-2.6c0.08-1.09,0.89-2.22,2.43-3.37c-1.85-12.46-2.98-24.51-3.36-36.15
		c-0.39-11.63-0.58-22.27-0.58-31.91C336.87,24.38,334.25,24.96,331.62,25.73z M356.88,23.22c-0.93-0.13-1.89-0.22-2.9-0.29
		c-1.01-0.06-1.97-0.1-2.9-0.1c0.93,1.03,1.7,2.28,2.32,3.76c0.62,1.48,0.93,2.92,0.93,4.34c0,7.84,0.12,16.26,0.35,25.25
		c0.23,9,0.96,18.7,2.2,29.11c6.8-4.11,12.63-9.28,17.49-15.52c4.87-6.23,7.45-12.82,7.76-19.76c0.15-6.43-1.78-12.11-5.79-17.06
		C372.32,28.01,365.83,24.77,356.88,23.22z"/>
	<path class="st1" d="M470.63,54.07c0.62,1.29,0,2.54-1.85,3.76c-1.85,1.22-4.79,2.02-8.8,2.41c-6.95,0.77-14.06,1.58-21.31,2.41
		c-7.26,0.84-14.68,1.71-22.24,2.6c-0.31,6.55-0.31,13.11,0,19.66c3.55,0,7.84-0.29,12.86-0.87c5.02-0.58,10.15-1.32,15.41-2.22
		c5.25-0.9,10.31-1.83,15.18-2.8c4.87-0.96,9-1.76,12.39-2.41c1.7-0.39,3.48-0.67,5.33-0.87c1.85-0.19,3.51-0.19,4.98,0
		c1.47,0.19,2.66,0.67,3.59,1.45c0.93,0.77,1.39,1.86,1.39,3.28c0,0.39-0.54,0.96-1.62,1.73c-1.08,0.77-2.43,1.58-4.05,2.41
		c-1.62,0.84-3.32,1.61-5.1,2.31c-1.78,0.71-3.36,1.25-4.75,1.64c-9.58,2.57-19,4.79-28.27,6.65c-9.27,1.87-18.3,2.86-27.11,2.99
		c-5.1,0.13-8.96-0.99-11.58-3.37c-2.63-2.38-4.02-5.81-4.17-10.31c-0.31-6.29-0.31-12.66,0-19.08c-2.63-1.28-3.94-3.08-3.94-5.4
		c0.31-2.44,1.7-4.11,4.17-5.01c0.31-3.73,0.54-7.49,0.7-11.28c0.15-3.79,0.38-7.55,0.69-11.28c-1.7-0.26-3.21-0.96-4.52-2.12
		c-1.31-1.16-1.97-2.44-1.97-3.86c0-1.16,0.31-2.22,0.93-3.18c0.62-0.96,1.77-1.7,3.47-2.22c2.78-0.51,6.18-1.09,10.19-1.74
		c4.01-0.64,8.14-1.22,12.39-1.73c4.25-0.51,8.34-0.96,12.28-1.35c3.94-0.39,7.3-0.64,10.08-0.77c3.24-0.26,6.37,0,9.38,0.77
		c3.01,0.77,5.83,2.25,8.46,4.43c0.62,1.8,0.19,3.15-1.27,4.05c-1.47,0.9-3.36,1.48-5.68,1.74c-2.32,0.26-5.1,0.55-8.34,0.87
		c-3.24,0.32-6.6,0.67-10.08,1.06c-3.48,0.39-6.95,0.74-10.43,1.06c-3.48,0.32-6.76,0.67-9.85,1.06c0,0.26,0.04,0.55,0.12,0.87
		c0.08,0.32,0.12,0.61,0.12,0.87c-0.31,3.34-0.54,6.68-0.69,10.02c-0.16,3.34-0.31,6.68-0.46,10.02c6.49-0.9,13.13-1.7,19.92-2.41
		c6.79-0.7,12.2-1.19,16.22-1.45c3.24-0.26,6.41,0.07,9.5,0.96C465.38,50.34,468.16,51.88,470.63,54.07z"/>
	<path class="st1" d="M502.6,98.79c-0.46-4.75-0.81-10.15-1.04-16.19c-0.23-6.04-0.35-12.24-0.35-18.6c0-6.36,0.04-12.63,0.12-18.8
		c0.08-6.17,0.27-11.76,0.58-16.77c0-1.28,0.73-2.28,2.2-2.99c1.47-0.7,2.66-0.99,3.59-0.87c2.78,0.26,4.67,1.06,5.68,2.41
		c1,1.35,1.66,3.25,1.97,5.69c-0.16,4.11-0.27,8.23-0.35,12.34c-0.08,4.11-0.04,8.23,0.12,12.34c6.95-1.03,12.78-3.15,17.49-6.36
		c4.71-3.21,8.07-6.87,10.08-10.99c0.77-1.54,1.35-3.4,1.74-5.59c0.38-2.18,0.42-4.4,0.12-6.65c-0.31-2.25-1.04-4.37-2.2-6.36
		c-1.16-1.99-2.9-3.57-5.21-4.72c-3.4-1.67-7.11-2.57-11.12-2.7c-4.02-0.13-8.15,0.36-12.39,1.45c-4.25,1.09-8.42,2.8-12.51,5.11
		c-4.09,2.31-7.92,5.08-11.47,8.29c0.46,1.93,0.15,3.63-0.93,5.11c-1.08,1.48-2.63,2.54-4.63,3.18c-1.24,0.26-2.7-0.29-4.4-1.64
		c-1.7-1.35-2.55-2.73-2.55-4.15c0-5.14,1.74-9.61,5.21-13.4c3.48-3.79,7.84-6.97,13.09-9.54c5.25-2.57,10.89-4.5,16.91-5.78
		c6.02-1.28,11.58-1.93,16.68-1.93c7.57,0,13.9,1.83,19,5.49c5.1,3.66,8.57,8.26,10.43,13.78c3.24,9.64,2.43,18.31-2.43,26.03
		c-4.87,7.71-12.78,14.4-23.75,20.05c8.03,4.11,15.56,8.03,22.59,11.76c7.03,3.73,14.09,7.78,21.2,12.15
		c0.93,0.77,1.97,1.9,3.13,3.37c1.16,1.48,0.96,3.7-0.58,6.65c-0.93,1.8-2.51,2.79-4.75,2.99c-2.24,0.19-4.44-0.35-6.6-1.64
		c-3.4-2.31-7.22-4.72-11.47-7.23c-4.25-2.51-8.69-5.01-13.32-7.52s-9.27-4.95-13.9-7.33c-4.63-2.38-9.04-4.59-13.21-6.65
		c0.15,5.14,0.27,10.25,0.35,15.33c0.08,5.08,0.27,10.06,0.58,14.94c0,1.8-0.62,3.05-1.85,3.76c-1.24,0.71-2.78,1.06-4.63,1.06
		c-0.93-0.13-1.78-0.54-2.55-1.25c-0.78-0.71-1.51-1.54-2.2-2.51c-0.7-0.96-1.27-1.93-1.74-2.89
		C502.83,100.05,502.6,99.31,502.6,98.79z"/>
	<path class="st1" d="M605.23,85.49c0.15,0.52,0.23,1.25,0.23,2.22c0,0.96-0.23,1.93-0.7,2.89c-0.46,0.96-1.12,1.8-1.97,2.51
		c-0.85,0.71-2.05,1.06-3.59,1.06c-3.4-1.8-6.25-4.17-8.57-7.13c-1.24-3.86-2.36-8.29-3.36-13.3c-1.01-5.01-1.82-10.25-2.43-15.71
		c-0.62-5.46-1.04-11.02-1.27-16.68c-0.23-5.65-0.27-11.12-0.12-16.39c0-0.9,0.12-2.05,0.35-3.47c0.23-1.41,0.66-2.79,1.27-4.14
		c0.62-1.35,1.39-2.51,2.32-3.47s2.24-1.45,3.94-1.45c2.01,0,3.63,0.52,4.87,1.54c1.23,1.03,1.85,2.7,1.85,5.01
		c-0.16,5.14-0.12,10.64,0.12,16.48c0.23,5.85,0.66,11.73,1.27,17.64c0.62,5.91,1.43,11.66,2.43,17.25
		C602.88,75.95,604,80.99,605.23,85.49z"/>
	<path class="st1" d="M710.88,25.15c-15.91-0.64-31.2,0.39-45.87,3.08c-14.68,2.7-29.19,6.36-43.56,10.99
		c-3.71,1.16-6.53,1.03-8.46-0.39c-1.93-1.41-2.9-2.83-2.9-4.24c1.08-2.44,3.01-4.43,5.79-5.98c31.66-12.85,63.33-17.61,94.99-14.27
		c1.54,0.39,2.82,1.32,3.82,2.8c1,1.48,1.35,2.73,1.04,3.76c-0.31,1.29-0.77,2.35-1.39,3.18C713.74,24.93,712.58,25.28,710.88,25.15
		z M677.98,92.43c0,1.42-0.58,2.67-1.74,3.76c-1.16,1.09-2.59,1.77-4.29,2.02c-3.09,0.39-5.1-0.06-6.02-1.35
		c-0.93-1.28-1.47-2.76-1.62-4.43c-0.16-8.99-0.35-17.96-0.58-26.89c-0.23-8.93-0.73-17.9-1.51-26.89c0-0.51-0.08-1.12-0.23-1.83
		c-0.16-0.71-0.16-1.41,0-2.12c0.15-0.71,0.5-1.32,1.04-1.83c0.54-0.51,1.43-0.9,2.66-1.16c3.55-0.51,6.1-0.03,7.65,1.45
		c1.54,1.48,2.32,2.92,2.32,4.34c1.23,9.25,2.01,18.44,2.32,27.57C678.29,74.18,678.29,83.31,677.98,92.43z"/>
</g>
</svg>
