<?xml version="1.0" encoding="utf-8"?>
<!-- Generator: Adobe Illustrator 25.2.3, SVG Export Plug-In . SVG Version: 6.00 Build 0)  -->
<svg version="1.1" id="레이어_1" xmlns="http://www.w3.org/2000/svg" xmlns:xlink="http://www.w3.org/1999/xlink" x="0px"
	 y="0px" viewBox="0 0 550 100" style="enable-background:new 0 0 550 100;" xml:space="preserve">
<style type="text/css">
	.st0{fill:#FDD000;}
	.st1{fill:#007FC7;}
	.st2{fill:#D4E5EB;}
</style>
<g>
	<path class="st0" d="M182.47,75.31c-17,0-30.08-9.17-30.08-25.51c0-16.41,13.09-25.51,30.08-25.51c16.94,0,30.11,9.09,30.11,25.51
		S199.4,75.31,182.47,75.31z M182.47,34.82c-9.08,0-14.53,5.26-14.53,14.98c0,9.72,5.45,14.98,14.53,14.98
		c9.11,0,14.53-5.26,14.53-14.98C197,40.08,191.58,34.82,182.47,34.82z"/>
	<path class="st0" d="M220.56,24.97h26.05c14.16,0,23,6.33,23,16.54c0,6.86-4,11.73-10.93,14.21l13.09,18.91h-16.63l-11.52-17h-7.82
		v17h-15.24V24.97z M243.32,48.18c6.84,0,10.5-2.06,10.5-6.67c0-4.61-3.66-6.86-10.5-6.86h-7.51v13.53H243.32z"/>
	<path class="st0" d="M277.08,74.63V24.97h23.28c19.25,0,31.16,9.31,31.16,24.8c0,15.52-11.92,24.85-31.13,24.85H277.08z
		 M299.8,64.4c10.62,0,16.44-3.88,16.44-14.62c0-10.69-5.82-14.57-16.66-14.57h-7.27V64.4H299.8z"/>
	<path class="st0" d="M339.5,24.97h43.97v9.75h-28.73V44.9h26.48v9.77h-26.48v10.21h28.73v9.75H339.5V24.97z"/>
	<path class="st0" d="M392.14,24.97h26.05c14.16,0,23,6.33,23,16.54c0,6.86-4,11.73-10.93,14.21l13.09,18.91h-16.63l-11.52-17h-7.82
		v17h-15.24V24.97z M414.89,48.18c6.84,0,10.5-2.06,10.5-6.67c0-4.61-3.66-6.86-10.5-6.86h-7.51v13.53H414.89z"/>
	<path class="st0" d="M463.9,74.63h-15.24V24.97h15.24V74.63z"/>
	<path class="st0" d="M470.5,24.97h53.3v9.75h-19.12v39.91h-15.03V34.72H470.5V24.97z"/>
</g>
<path class="st0" d="M76.02,78.1L76.02,78.1v13.66l54.82-42.16L76.35,7.69c-0.08-0.08-0.16-0.17-0.23-0.25
	C76.11,7.46,76.1,7.48,76.1,7.5l-0.08-0.06v0.34c-6.4,22.03-12.79,44.07-19.19,66.1L25.26,49.6l37.06-28.5v0V7.44L7.5,49.6
	l46.08,35.44l0,0c2.85,2.24,5.7,4.48,8.55,6.72c0.01-0.04,0.02-0.08,0.03-0.12l0.15,0.12v-0.65c6.37-21.95,12.75-43.9,19.12-65.85
	l31.64,24.34L76.02,78.1z"/>
<polygon class="st1" points="98.38,54.91 59.17,33.17 56.21,31.53 57.14,34.77 65.6,64.3 69.49,77.88 79.18,60.41 "/>
<polygon class="st2" points="98.38,54.91 59.17,33.17 56.21,31.53 79.18,60.41 "/>
</svg>
